<svg width="64" height="64" viewBox="0 0 64 64" fill="none" xmlns="http://www.w3.org/2000/svg">
<path d="M10.667 48V22.6666C10.667 19.484 11.9313 16.4318 14.1817 14.1813C16.4321 11.9309 19.4844 10.6666 22.667 10.6666H41.3337C42.9095 10.6666 44.47 10.977 45.9259 11.5801C47.3818 12.1831 48.7046 13.067 49.8189 14.1813C50.9332 15.2956 51.8172 16.6185 52.4202 18.0744C53.0233 19.5303 53.3337 21.0908 53.3337 22.6666V41.3333C53.3337 42.9092 53.0233 44.4696 52.4202 45.9255C51.8172 47.3814 50.9332 48.7043 49.8189 49.8186C48.7046 50.9329 47.3818 51.8168 45.9259 52.4198C44.47 53.0229 42.9095 53.3333 41.3337 53.3333H16.0003C14.5858 53.3333 13.2293 52.7714 12.2291 51.7712C11.2289 50.771 10.667 49.4144 10.667 48V48Z" stroke="white" stroke-width="4" stroke-linecap="round" stroke-linejoin="round"/>
<path d="M21.333 32H30.6663C32.0808 32 33.4374 32.5619 34.4376 33.5621C35.4378 34.5623 35.9997 35.9189 35.9997 37.3334C35.9997 38.7479 35.4378 40.1044 34.4376 41.1046C33.4374 42.1048 32.0808 42.6667 30.6663 42.6667H21.333V24C21.333 23.2928 21.614 22.6145 22.1141 22.1144C22.6142 21.6143 23.2924 21.3334 23.9997 21.3334H27.9997C29.4142 21.3334 30.7707 21.8953 31.7709 22.8955C32.7711 23.8957 33.333 25.2522 33.333 26.6667C33.333 28.0812 32.7711 29.4377 31.7709 30.4379C30.7707 31.4381 29.4142 32 27.9997 32H23.9997" stroke="white" stroke-width="4" stroke-linecap="round" stroke-linejoin="round"/>
<path d="M42.667 42.6666H42.6937" stroke="white" stroke-width="4" stroke-linecap="round" stroke-linejoin="round"/>
</svg>
