<svg width="64" height="64" viewBox="0 0 64 64" fill="none" xmlns="http://www.w3.org/2000/svg">
<path d="M40 56V46.6667C40 44 40.2667 42.9333 38.6667 41.3333C46.1333 40.5333 53.3333 37.6 53.3333 25.3333C53.3301 22.1466 52.0868 19.0861 49.8667 16.8C50.9079 14.0319 50.8121 10.9643 49.6 8.26666C49.6 8.26666 46.6667 7.46666 40.2667 11.7333C34.846 10.3216 29.154 10.3216 23.7333 11.7333C17.3333 7.46666 14.4 8.26666 14.4 8.26666C13.188 10.9643 13.0921 14.0319 14.1333 16.8C11.9132 19.0861 10.6699 22.1466 10.6667 25.3333C10.6667 37.6 17.8667 40.5333 25.3333 41.3333C23.7333 42.9333 23.7333 44.5333 24 46.6667V56M24 50.6667C12.5333 54.4 12.5333 44 8 42.6667L24 50.6667Z" stroke="white" stroke-width="4" stroke-linecap="round" stroke-linejoin="round"/>
</svg>
