<svg width="64" height="64" viewBox="0 0 64 64" fill="none" xmlns="http://www.w3.org/2000/svg">
<path d="M13.333 50.6666C17.7513 50.6666 21.333 47.0849 21.333 42.6666C21.333 38.2483 17.7513 34.6666 13.333 34.6666C8.91473 34.6666 5.33301 38.2483 5.33301 42.6666C5.33301 47.0849 8.91473 50.6666 13.333 50.6666Z" stroke="white" stroke-width="4" stroke-linecap="round" stroke-linejoin="round"/>
<path d="M50.667 50.6666C55.0853 50.6666 58.667 47.0849 58.667 42.6666C58.667 38.2483 55.0853 34.6666 50.667 34.6666C46.2487 34.6666 42.667 38.2483 42.667 42.6666C42.667 47.0849 46.2487 50.6666 50.667 50.6666Z" stroke="white" stroke-width="4" stroke-linecap="round" stroke-linejoin="round"/>
<path d="M20 37.3333L30.6667 26.6666M20 37.3333H33.3333L44 26.6666H16L20 37.3333Z" stroke="white" stroke-width="4" stroke-linecap="round" stroke-linejoin="round"/>
<path d="M34.667 16H40.0003L44.0003 24L49.3337 34.6667" stroke="white" stroke-width="4" stroke-linecap="round" stroke-linejoin="round"/>
</svg>
