<svg width="571" height="86" viewBox="0 0 571 86" fill="none" xmlns="http://www.w3.org/2000/svg">
<path d="M136.16 32.16C130.667 31.8933 125.387 32.32 120.32 33.44C115.253 34.56 110.24 36.08 105.28 38C104 38.48 103.013 38.4267 102.32 37.84C101.68 37.2533 101.36 36.6667 101.36 36.08C101.733 35.0667 102.4 34.24 103.36 33.6C114.293 28.2667 125.227 26.2933 136.16 27.68C136.693 27.84 137.12 28.24 137.44 28.88C137.813 29.4667 137.947 29.9733 137.84 30.4C137.733 30.9333 137.573 31.3867 137.36 31.76C137.147 32.08 136.747 32.2133 136.16 32.16ZM124.8 60.08C124.8 60.6667 124.587 61.2 124.16 61.68C123.787 62.1067 123.307 62.3733 122.72 62.48C121.653 62.64 120.96 62.4533 120.64 61.92C120.32 61.3867 120.133 60.7733 120.08 60.08C120.027 56.3467 119.947 52.64 119.84 48.96C119.787 45.2267 119.627 41.4933 119.36 37.76C119.36 37.5467 119.333 37.3067 119.28 37.04C119.227 36.72 119.227 36.4267 119.28 36.16C119.333 35.84 119.44 35.5733 119.6 35.36C119.813 35.1467 120.133 34.9867 120.56 34.88C121.787 34.6667 122.667 34.88 123.2 35.52C123.733 36.1067 124 36.6933 124 37.28C124.427 41.12 124.693 44.9333 124.8 48.72C124.907 52.5067 124.907 56.2933 124.8 60.08ZM148.333 28.56C148.333 29.84 148.306 31.28 148.253 32.88C148.253 34.48 148.253 36.1333 148.253 37.84C148.306 39.5467 148.333 41.3067 148.333 43.12C148.386 44.9333 148.44 46.6667 148.493 48.32C149.026 47.2533 149.666 46.2133 150.413 45.2C151.16 44.1333 151.986 43.2 152.893 42.4C153.853 41.6 154.84 40.96 155.853 40.48C156.92 40 158.066 39.76 159.293 39.76C160.626 39.76 161.8 40.1867 162.813 41.04C163.88 41.8933 164.786 43.04 165.533 44.48C166.333 45.8667 167 47.44 167.533 49.2C168.066 50.9067 168.493 52.6667 168.813 54.48C169.186 56.24 169.453 57.9467 169.613 59.6C169.773 61.2 169.906 62.5867 170.013 63.76C170.013 64.6133 169.8 65.3067 169.373 65.84C168.946 66.3733 168.44 66.64 167.853 66.64C167.426 66.64 166.893 66.3733 166.253 65.84C165.666 65.2533 165.24 64.56 164.973 63.76C164.813 63.12 164.653 62.1867 164.493 60.96C164.333 59.7333 164.146 58.4267 163.933 57.04C163.72 55.6 163.453 54.16 163.133 52.72C162.813 51.28 162.413 50 161.933 48.88C161.506 47.7067 160.973 46.8 160.333 46.16C159.693 45.52 158.946 45.28 158.093 45.44C156.76 45.7067 155.586 46.64 154.573 48.24C153.613 49.84 152.76 51.6533 152.013 53.68C151.32 55.7067 150.733 57.76 150.253 59.84C149.826 61.92 149.506 63.6 149.293 64.88C149.08 65.84 148.786 66.5067 148.413 66.88C148.093 67.2 147.72 67.36 147.293 67.36C146.866 67.36 146.466 67.1467 146.093 66.72C145.773 66.2933 145.453 65.7867 145.133 65.2C144.866 64.56 144.626 63.92 144.413 63.28C144.2 62.5867 144.066 62 144.013 61.52C143.746 58.64 143.533 55.8933 143.373 53.28C143.213 50.6133 143.08 47.9467 142.973 45.28C142.92 42.6133 142.893 39.8933 142.893 37.12C142.893 34.2933 142.946 31.28 143.053 28.08C143.053 25.4133 144.013 24.2133 145.933 24.48C146.573 24.5867 147.133 25.0667 147.613 25.92C148.093 26.72 148.333 27.6 148.333 28.56ZM195.14 45.2C193.06 46.4267 190.82 47.3867 188.42 48.08C186.02 48.72 183.433 49.04 180.66 49.04C180.767 50.9067 181.3 52.4 182.26 53.52C183.22 54.5867 184.42 55.2267 185.86 55.44C186.713 55.5467 187.567 55.52 188.42 55.36C189.327 55.2 190.153 54.96 190.9 54.64C191.7 54.2667 192.42 53.8667 193.06 53.44C193.7 53.0133 194.26 52.5867 194.74 52.16C195.22 51.7333 195.727 51.4667 196.26 51.36C196.793 51.2 197.193 51.1733 197.46 51.28C198.207 51.5467 198.473 52.3467 198.26 53.68C197.407 55.3867 196.18 56.8533 194.58 58.08C192.98 59.2533 191.193 60 189.22 60.32C187.513 60.64 185.753 60.56 183.94 60.08C182.127 59.6 180.5 58.6667 179.06 57.28C177.833 56.0533 176.9 54.6133 176.26 52.96C175.62 51.3067 175.22 49.6 175.06 47.84C174.9 46.1867 175.033 44.6133 175.46 43.12C175.94 41.6267 176.66 40.32 177.62 39.2C178.58 38.0267 179.78 37.0667 181.22 36.32C182.66 35.5733 184.34 35.1467 186.26 35.04C188.553 34.88 190.633 35.3067 192.5 36.32C194.367 37.3333 195.673 38.7467 196.42 40.56C196.847 41.5733 196.953 42.4533 196.74 43.2C196.58 43.9467 196.047 44.6133 195.14 45.2ZM185.94 39.76C185.407 39.8667 184.82 40.0533 184.18 40.32C183.593 40.5867 183.033 40.9333 182.5 41.36C182.02 41.7333 181.567 42.1867 181.14 42.72C180.767 43.2 180.553 43.76 180.5 44.4C181.407 44.4 182.393 44.32 183.46 44.16C184.58 44 185.647 43.8133 186.66 43.6C187.727 43.3333 188.687 43.04 189.54 42.72C190.447 42.4 191.193 42.0533 191.78 41.68C191.353 40.6667 190.553 40.0533 189.38 39.84C188.26 39.5733 187.113 39.5467 185.94 39.76ZM268.166 37.6C268.326 38.4 268.486 39.3067 268.646 40.32C268.859 41.28 269.072 42.2933 269.286 43.36C269.499 44.3733 269.686 45.4133 269.846 46.48C270.006 47.5467 270.139 48.56 270.246 49.52C270.886 48.1333 271.579 46.6667 272.326 45.12C273.072 43.5733 273.872 42.16 274.726 40.88C275.632 39.5467 276.566 38.4533 277.526 37.6C278.539 36.7467 279.632 36.32 280.806 36.32C282.566 36.32 284.032 36.96 285.206 38.24C286.432 39.52 287.446 41.12 288.246 43.04C289.099 44.9067 289.766 46.88 290.246 48.96C290.726 51.04 291.126 52.88 291.446 54.48C291.766 55.92 291.126 56.9867 289.526 57.68C288.779 58.0533 288.219 58.1067 287.846 57.84C287.472 57.5733 287.259 57.3067 287.206 57.04C286.939 56.4 286.592 55.28 286.166 53.68C285.792 52.08 285.339 50.4533 284.806 48.8C284.326 47.1467 283.766 45.7067 283.126 44.48C282.486 43.2533 281.766 42.6933 280.966 42.8C280.006 42.8533 279.152 43.5733 278.406 44.96C277.766 46.08 277.099 47.3333 276.406 48.72C275.766 50.0533 275.126 51.44 274.486 52.88C273.846 54.2667 273.206 55.68 272.566 57.12C271.979 58.5067 271.419 59.7867 270.886 60.96C270.512 61.3333 270.032 61.6 269.446 61.76C268.912 61.8667 268.352 61.8133 267.766 61.6C267.232 61.44 266.806 61.1733 266.486 60.8C266.166 60.4267 266.006 60.0533 266.006 59.68C265.526 55.52 265.019 51.7333 264.486 48.32C264.006 44.9067 263.366 41.4133 262.566 37.84C262.192 36.6133 262.112 35.6533 262.326 34.96C262.592 34.2133 263.392 33.92 264.726 34.08C266.592 34.4 267.739 35.5733 268.166 37.6ZM310.472 23.44C310.312 22.48 310.365 21.6 310.632 20.8C310.952 20 311.565 19.5467 312.472 19.44C313.272 19.3333 313.965 19.5467 314.552 20.08C315.192 20.6133 315.592 21.3067 315.752 22.16C316.819 28.2933 317.805 34.4 318.712 40.48C319.672 46.5067 320.525 52.4267 321.272 58.24C321.485 59.7867 321.379 60.8533 320.952 61.44C320.525 61.9733 320.019 62.3733 319.432 62.64C318.792 62.9067 318.179 62.9067 317.592 62.64C317.059 62.3733 316.712 61.8933 316.552 61.2L316.472 60.72L316.152 60.8C314.392 61.44 312.552 61.8133 310.632 61.92C308.712 61.9733 306.872 61.7333 305.112 61.2C303.352 60.6667 301.779 59.8133 300.392 58.64C299.059 57.4133 298.099 55.8667 297.512 54C296.232 49.8933 297.032 46.16 299.912 42.8C301.139 41.4133 302.659 40.16 304.472 39.04C306.285 37.92 308.472 37.04 311.032 36.4L312.472 36.08L310.472 23.44ZM302.392 52C302.712 53.28 303.299 54.2667 304.152 54.96C305.005 55.6533 306.019 56.1333 307.192 56.4C308.365 56.6133 309.619 56.64 310.952 56.48C312.285 56.32 313.592 56.0267 314.872 55.6L315.592 55.36L313.352 41.28L311.752 41.68C310.632 42 309.432 42.5067 308.152 43.2C306.925 43.84 305.832 44.6133 304.872 45.52C303.912 46.4267 303.165 47.44 302.632 48.56C302.152 49.68 302.072 50.8267 302.392 52ZM349.466 36.4C348.506 36.9333 347.492 37.4933 346.426 38.08C345.412 38.6667 344.372 39.36 343.306 40.16C342.292 40.9067 341.306 41.8133 340.346 42.88C339.439 43.8933 338.612 45.12 337.866 46.56C336.799 48.5867 336.079 50.6667 335.706 52.8C335.332 54.88 335.092 56.9333 334.986 58.96C334.986 59.92 334.746 60.9067 334.266 61.92C333.839 62.88 333.226 63.36 332.426 63.36C331.412 63.36 330.586 62.8533 329.946 61.84C329.359 60.7733 328.959 59.76 328.746 58.8C327.839 55.0133 327.092 51.28 326.506 47.6C325.919 43.8667 325.412 40.16 324.986 36.48C324.986 35.7333 325.199 35.2533 325.626 35.04C326.106 34.8267 326.639 34.7467 327.226 34.8C327.866 34.8533 328.479 35.0133 329.066 35.28C329.652 35.5467 329.999 35.9733 330.106 36.56C330.319 38.5333 330.586 40.6133 330.906 42.8C331.226 44.9333 331.546 46.7733 331.866 48.32C332.079 46.5067 332.666 44.7467 333.626 43.04C334.586 41.3333 335.759 39.7867 337.146 38.4C338.586 37.0133 340.186 35.84 341.946 34.88C343.759 33.92 345.599 33.28 347.466 32.96C348.266 32.8533 348.932 32.8533 349.466 32.96C349.999 33.0667 350.372 33.2533 350.586 33.52C350.799 33.7867 350.826 34.2133 350.666 34.8C350.559 35.3867 350.159 35.92 349.466 36.4ZM372.696 36.08C374.296 36.6667 375.629 37.5467 376.696 38.72C377.816 39.8933 378.669 41.2267 379.256 42.72C379.842 44.16 380.162 45.6533 380.216 47.2C380.322 48.7467 380.162 50.1867 379.736 51.52C379.149 53.0133 378.402 54.48 377.496 55.92C376.589 57.36 375.549 58.64 374.376 59.76C373.202 60.88 371.869 61.7867 370.376 62.48C368.882 63.1733 367.229 63.52 365.416 63.52C363.229 63.52 361.389 63.0133 359.896 62C358.402 60.9867 357.229 59.68 356.376 58.08C355.522 56.48 354.962 54.6667 354.696 52.64C354.482 50.6133 354.536 48.5867 354.856 46.56C355.069 45.0667 355.416 43.6267 355.896 42.24C356.429 40.8 357.096 39.5467 357.896 38.48C358.696 37.36 359.602 36.4533 360.616 35.76C361.682 35.0667 362.882 34.72 364.216 34.72C364.962 34.72 365.896 34.88 367.016 35.2C368.136 35.4667 369.176 35.8667 370.136 36.4C370.829 35.76 371.682 35.6533 372.696 36.08ZM369.656 41.92C369.069 41.5467 368.376 41.0667 367.576 40.48C366.829 39.84 366.162 39.52 365.576 39.52C364.936 39.52 364.296 39.8133 363.656 40.4C363.069 40.9867 362.536 41.68 362.056 42.48C361.629 43.2267 361.256 44 360.936 44.8C360.616 45.6 360.402 46.24 360.296 46.72C360.136 47.52 360.029 48.48 359.976 49.6C359.922 50.72 360.002 51.84 360.216 52.96C360.429 54.0267 360.829 55.0133 361.416 55.92C362.056 56.7733 362.989 57.3867 364.216 57.76C364.962 57.9733 365.842 57.9733 366.856 57.76C367.869 57.4933 368.856 57.04 369.816 56.4C370.829 55.76 371.762 54.9067 372.616 53.84C373.522 52.7733 374.216 51.5467 374.696 50.16C375.229 48.6133 375.229 47.0133 374.696 45.36C374.216 43.6533 373.202 42.4267 371.656 41.68C371.282 41.9467 370.909 42.08 370.536 42.08C370.162 42.08 369.869 42.0267 369.656 41.92ZM400.079 31.36C399.973 31.8933 399.599 32.1867 398.959 32.24C398.319 32.2933 397.786 32.32 397.359 32.32C396.026 32.3733 394.639 32.5067 393.199 32.72C391.813 32.9333 390.346 33.2533 388.799 33.68C388.159 33.8933 387.466 33.8133 386.719 33.44C385.973 33.0667 385.519 32.32 385.359 31.2C385.359 30.7733 385.519 30.4267 385.839 30.16C386.159 29.8933 386.533 29.6533 386.959 29.44C387.653 29.12 388.479 28.8533 389.439 28.64C390.399 28.3733 391.359 28.1867 392.319 28.08C393.333 27.9733 394.293 27.9467 395.199 28C396.106 28 396.853 28.08 397.439 28.24C398.293 28.5067 398.959 28.9067 399.439 29.44C399.973 29.9733 400.186 30.6133 400.079 31.36ZM398.239 58C398.613 58.8533 398.799 59.7867 398.799 60.8C398.853 61.76 398.586 62.4267 397.999 62.8C397.253 63.28 396.453 63.2533 395.599 62.72C394.746 62.1867 394.106 61.4667 393.679 60.56C393.093 59.44 392.639 58.08 392.319 56.48C391.999 54.8267 391.759 53.2 391.599 51.6C391.439 50 391.333 48.5067 391.279 47.12C391.279 45.7333 391.279 44.6933 391.279 44C391.333 43.2533 391.546 42.56 391.919 41.92C392.293 41.28 392.773 40.9067 393.359 40.8C394.319 40.8533 395.093 41.3067 395.679 42.16C396.266 42.96 396.533 43.9733 396.479 45.2C396.479 46.16 396.506 47.2267 396.559 48.4C396.613 49.5733 396.719 50.7467 396.879 51.92C397.039 53.0933 397.226 54.24 397.439 55.36C397.653 56.4267 397.919 57.3067 398.239 58ZM419.534 23.44C419.374 22.48 419.428 21.6 419.694 20.8C420.014 20 420.628 19.5467 421.534 19.44C422.334 19.3333 423.028 19.5467 423.614 20.08C424.254 20.6133 424.654 21.3067 424.814 22.16C425.881 28.2933 426.868 34.4 427.774 40.48C428.734 46.5067 429.588 52.4267 430.334 58.24C430.548 59.7867 430.441 60.8533 430.014 61.44C429.588 61.9733 429.081 62.3733 428.494 62.64C427.854 62.9067 427.241 62.9067 426.654 62.64C426.121 62.3733 425.774 61.8933 425.614 61.2L425.534 60.72L425.214 60.8C423.454 61.44 421.614 61.8133 419.694 61.92C417.774 61.9733 415.934 61.7333 414.174 61.2C412.414 60.6667 410.841 59.8133 409.454 58.64C408.121 57.4133 407.161 55.8667 406.574 54C405.294 49.8933 406.094 46.16 408.974 42.8C410.201 41.4133 411.721 40.16 413.534 39.04C415.348 37.92 417.534 37.04 420.094 36.4L421.534 36.08L419.534 23.44ZM411.454 52C411.774 53.28 412.361 54.2667 413.214 54.96C414.068 55.6533 415.081 56.1333 416.254 56.4C417.428 56.6133 418.681 56.64 420.014 56.48C421.348 56.32 422.654 56.0267 423.934 55.6L424.654 55.36L422.414 41.28L420.814 41.68C419.694 42 418.494 42.5067 417.214 43.2C415.988 43.84 414.894 44.6133 413.934 45.52C412.974 46.4267 412.228 47.44 411.694 48.56C411.214 49.68 411.134 50.8267 411.454 52ZM503.11 33.12C501.563 37.12 499.75 41.3067 497.67 45.68C495.643 50 493.217 54.2933 490.39 58.56C489.59 59.7867 488.683 60.4 487.67 60.4C487.03 60.4 486.497 60.2667 486.07 60C485.643 59.68 485.27 59.28 484.95 58.8C483.563 56.6667 482.31 54.4 481.19 52C480.07 49.6 478.977 46.88 477.91 43.84C476.363 46.56 474.63 49.3067 472.71 52.08C470.843 54.8533 468.79 57.44 466.55 59.84C466.123 60.32 465.67 60.64 465.19 60.8C464.763 60.96 464.417 61.0133 464.15 60.96C463.03 60.8 462.15 60.1067 461.51 58.88C459.537 55.2 458.203 51.1467 457.51 46.72C456.817 42.2933 456.443 37.76 456.39 33.12C456.39 32.6933 456.55 32.2667 456.87 31.84C457.19 31.4133 457.67 31.2267 458.31 31.28C459.27 31.3333 460.017 31.7067 460.55 32.4C461.083 33.04 461.403 33.84 461.51 34.8C461.617 36.1333 461.75 37.6533 461.91 39.36C462.07 41.0133 462.283 42.72 462.55 44.48C462.817 46.24 463.163 47.9467 463.59 49.6C464.017 51.2533 464.55 52.6933 465.19 53.92C465.99 52.9067 466.843 51.7867 467.75 50.56C468.657 49.3333 469.537 48.0533 470.39 46.72C471.297 45.3867 472.15 44.0533 472.95 42.72C473.75 41.3333 474.47 39.9733 475.11 38.64C475.537 37.7333 476.07 37.1467 476.71 36.88C477.35 36.6133 477.857 36.48 478.23 36.48C479.83 36.48 480.923 37.2533 481.51 38.8C482.417 41.04 483.323 43.4133 484.23 45.92C485.19 48.4267 486.23 50.8 487.35 53.04C488.31 51.5467 489.297 49.8667 490.31 48C491.323 46.1333 492.31 44.24 493.27 42.32C494.23 40.3467 495.137 38.3733 495.99 36.4C496.897 34.4267 497.697 32.56 498.39 30.8C498.657 30.16 499.11 29.6267 499.75 29.2C500.39 28.7733 501.083 28.8 501.83 29.28C502.417 29.6533 502.817 30.2667 503.03 31.12C503.297 31.92 503.323 32.5867 503.11 33.12ZM528.749 34.4C528.962 35.8933 529.122 37.4933 529.229 39.2C529.389 40.8533 529.495 42.5333 529.549 44.24C529.655 45.9467 529.709 47.6 529.709 49.2C529.709 50.8 529.682 52.24 529.629 53.52C531.335 54.6933 532.349 55.7333 532.669 56.64C533.042 57.5467 533.095 58.3467 532.829 59.04C532.509 60 531.922 60.5067 531.069 60.56C530.269 60.56 529.335 60.2667 528.269 59.68C527.522 60.2133 526.669 60.8 525.709 61.44C524.749 62.0267 523.735 62.6133 522.669 63.2C521.602 63.7333 520.535 64.2133 519.469 64.64C518.402 65.0667 517.415 65.36 516.509 65.52C514.802 65.7867 513.255 65.4667 511.869 64.56C510.535 63.6533 509.629 62.2933 509.149 60.48C508.829 59.2533 508.749 58 508.909 56.72C509.069 55.3867 509.469 54.1333 510.109 52.96C510.749 51.7333 511.602 50.64 512.669 49.68C513.789 48.72 515.095 47.9733 516.589 47.44C516.962 47.28 517.469 47.1467 518.109 47.04C518.802 46.9333 519.495 46.9067 520.189 46.96C520.935 46.96 521.682 47.0933 522.429 47.36C523.175 47.6267 523.869 48.08 524.509 48.72C524.509 47.8133 524.482 46.8267 524.429 45.76C524.429 44.64 524.402 43.52 524.349 42.4C524.295 41.28 524.215 40.24 524.109 39.28C524.055 38.2667 523.975 37.4133 523.869 36.72C523.762 35.92 523.442 35.44 522.909 35.28C522.429 35.0667 521.815 35.0933 521.069 35.36C519.789 35.7867 518.295 36.6133 516.589 37.84C514.882 39.0667 513.255 40.3733 511.709 41.76C511.229 42.24 510.669 42.4533 510.029 42.4C509.442 42.3467 508.935 42.1067 508.509 41.68C508.082 41.2533 507.842 40.7733 507.789 40.24C507.735 39.6533 507.949 39.04 508.429 38.4C509.335 37.44 510.349 36.4533 511.469 35.44C512.589 34.4267 513.762 33.52 514.989 32.72C516.215 31.8667 517.469 31.1733 518.749 30.64C520.029 30.1067 521.309 29.8133 522.589 29.76C524.455 29.7067 525.895 30.1333 526.909 31.04C527.922 31.8933 528.535 33.0133 528.749 34.4ZM519.469 51.6C518.775 51.76 518.029 52.1067 517.229 52.64C516.482 53.12 515.789 53.7333 515.149 54.48C514.562 55.1733 514.109 55.9733 513.789 56.88C513.522 57.7333 513.522 58.5867 513.789 59.44C513.895 59.76 514.109 60 514.429 60.16C514.802 60.32 515.202 60.3467 515.629 60.24C516.909 59.9733 518.349 59.4667 519.949 58.72C521.602 57.92 522.909 57.0667 523.869 56.16C523.869 55.84 523.709 55.44 523.389 54.96C523.069 54.4267 522.695 53.92 522.269 53.44C521.842 52.9067 521.362 52.4533 520.829 52.08C520.349 51.7067 519.895 51.5467 519.469 51.6ZM562.299 38.8C562.459 41.68 562.619 44.5867 562.779 47.52C562.992 50.4533 563.045 53.36 562.939 56.24C562.832 59.0667 562.539 61.84 562.059 64.56C561.632 67.28 560.885 69.8933 559.819 72.4C558.752 74.8533 557.312 77.1467 555.499 79.28C553.739 81.4133 551.499 83.3333 548.779 85.04C548.352 85.3067 547.872 85.4667 547.339 85.52C546.859 85.5733 546.379 85.5467 545.899 85.44C545.419 85.3867 544.992 85.2533 544.619 85.04C544.245 84.88 544.005 84.64 543.899 84.32C543.739 83.84 543.819 83.3067 544.139 82.72C544.459 82.1333 544.992 81.52 545.739 80.88C548.085 79.12 550.059 77.2533 551.659 75.28C553.259 73.3067 554.539 71.1733 555.499 68.88C556.459 66.5867 557.072 64.1067 557.339 61.44C557.659 58.72 557.659 55.76 557.339 52.56C556.699 53.36 555.952 54.1867 555.099 55.04C554.245 55.8933 553.339 56.6667 552.379 57.36C551.419 58 550.432 58.56 549.419 59.04C548.405 59.4667 547.445 59.68 546.539 59.68C545.792 59.68 545.045 59.52 544.299 59.2C543.552 58.88 542.805 58.2667 542.059 57.36C541.205 56.24 540.432 54.9867 539.739 53.6C539.099 52.16 538.539 50.7733 538.059 49.44C537.579 48.1067 537.179 46.9067 536.859 45.84C536.592 44.7733 536.432 44.0267 536.379 43.6C536.272 43.0667 536.272 42.56 536.379 42.08C536.485 41.6 536.832 41.3067 537.419 41.2C538.219 41.04 538.965 41.0933 539.659 41.36C540.352 41.6267 540.832 42.0533 541.099 42.64C541.312 43.2267 541.605 44.1333 541.979 45.36C542.352 46.5867 542.805 47.8133 543.339 49.04C543.872 50.2133 544.432 51.2533 545.019 52.16C545.659 53.0667 546.325 53.52 547.019 53.52C547.819 53.52 548.752 53.12 549.819 52.32C550.939 51.52 552.005 50.48 553.019 49.2C554.032 47.92 554.885 46.5067 555.579 44.96C556.325 43.36 556.699 41.8133 556.699 40.32C556.699 40 556.752 39.6267 556.859 39.2C556.965 38.7733 557.125 38.3733 557.339 38C557.552 37.5733 557.792 37.2267 558.059 36.96C558.379 36.64 558.699 36.4533 559.019 36.4C559.872 36.2933 560.619 36.5333 561.259 37.12C561.952 37.6533 562.299 38.2133 562.299 38.8Z" fill="white"/>
<path d="M229.769 64.08C229.502 64.9867 229.155 65.8133 228.729 66.56C228.302 67.2533 227.849 67.6533 227.369 67.76C226.355 68.0267 225.582 67.8667 225.049 67.28C224.515 66.6933 224.302 65.9467 224.409 65.04C224.835 61.84 225.529 58.48 226.489 54.96C227.449 51.3867 228.569 47.84 229.849 44.32C231.129 40.7467 232.515 37.3067 234.009 34C235.555 30.64 237.129 27.6 238.729 24.88C238.995 24.4533 239.289 24.2133 239.609 24.16C239.982 24.0533 240.302 24.0533 240.569 24.16C240.835 23.9467 241.155 23.76 241.529 23.6C241.902 23.44 242.275 23.36 242.649 23.36C242.809 23.36 242.969 23.3867 243.129 23.44C243.342 23.4933 243.555 23.6533 243.769 23.92C243.982 24.1867 244.222 24.5867 244.489 25.12C244.809 25.6 245.182 26.32 245.609 27.28C246.355 30 247.209 32.8 248.169 35.68C249.182 38.56 250.222 41.44 251.289 44.32C251.449 44.2667 251.582 44.24 251.689 44.24C251.849 44.1867 252.009 44.1333 252.169 44.08C252.755 44.0267 253.422 44.0533 254.169 44.16C254.915 44.2667 255.422 44.64 255.689 45.28C256.009 46.08 255.955 46.7733 255.529 47.36C255.102 47.9467 254.329 48.5333 253.209 49.12C253.902 50.8267 254.595 52.5067 255.289 54.16C255.982 55.76 256.702 57.3333 257.449 58.88C257.502 59.1467 257.582 59.5733 257.689 60.16C257.795 60.6933 257.849 61.2533 257.849 61.84C257.902 62.3733 257.875 62.88 257.769 63.36C257.662 63.84 257.449 64.16 257.129 64.32C256.755 64.48 256.355 64.4533 255.929 64.24C255.555 64.0267 255.182 63.76 254.809 63.44C254.435 63.0667 254.089 62.6933 253.769 62.32C253.502 61.8933 253.289 61.52 253.129 61.2C252.222 59.44 251.342 57.68 250.489 55.92C249.689 54.1067 248.915 52.2933 248.169 50.48C245.929 50.9067 243.475 51.28 240.809 51.6C238.195 51.92 235.609 52.1333 233.049 52.24C232.462 54.2667 231.875 56.2667 231.289 58.24C230.755 60.16 230.249 62.1067 229.769 64.08ZM241.129 30.48C238.675 35.9733 236.542 41.4667 234.729 46.96C238.302 46.8533 242.115 46.4 246.169 45.6C244.249 40.7467 242.569 35.7067 241.129 30.48Z" fill="#25CE81"/>
<ellipse cx="61.8789" cy="48.7502" rx="3.43354" ry="3.41666" fill="#F5F7FB"/>
<ellipse cx="25.0312" cy="48.7502" rx="3.43354" ry="3.41666" fill="#F5F7FB"/>
<path d="M61.7949 28.6823L68.4945 17.0156" stroke="#F5F7FB" stroke-width="5" stroke-linecap="round" stroke-linejoin="round"/>
<path d="M24.6667 28.6826C29.6061 26.1216 35.6397 24.516 43 24.516C78 24.516 83 61.1827 83 61.1827H3C3 61.1827 6.11817 38.3001 24.6667 28.6826ZM24.6667 28.6826L18 17" stroke="#F5F7FB" stroke-width="5" stroke-linecap="round" stroke-linejoin="bevel"/>
</svg>
